<?xml version="1.0" encoding="utf-8"?><svg width="222" height="154" viewBox="0 0 222 154" xmlns="http://www.w3.org/2000/svg" xmlns:xlink="http://www.w3.org/1999/xlink"><view id="back" viewBox="128 0 94 75"/><svg width="94" height="75" viewBox="-5 -5 94 75" x="128" xmlns="http://www.w3.org/2000/svg"><defs><path id="aa" d="M.058.05c.108 3.053.283 5.59.52 6.52.705 2.756 3.312 4.452 5.356 4.452H11.5c1.268 0 2.07-1.013 2.227-1.361l.747-1.673c.36-.805 1.4-1.438 2.334-1.438h41.436c.935 0 1.975.633 2.335 1.438l.78 1.748c.219.396.992 1.286 2.185 1.286h5.577c2.043 0 4.65-1.696 5.356-4.451.237-.932.412-3.468.52-6.521H.058"/><path id="ac" d="M72.733 9.32c-.852-1.86-2.006-3.698-2.766-5.222-.338-.68-.935-2.073-1.642-3.766H4.475C3.77 2.025 3.172 3.418 2.833 4.098 2.073 5.622.92 7.459.068 9.32h72.665"/></defs><g fill="none" fill-rule="evenodd"><path fill="#8A9BC2" d="M65.674 52.942c0 .936-.756 1.696-1.69 1.696h-43.69c-.934 0-1.691-.76-1.691-1.696V49.74c0-.936.757-1.696 1.691-1.696h43.688c.935 0 1.691.76 1.691 1.696v3.203m10.439-33.16c0 .538-.474 1.387-1.132 1.528l.705 1.295s.607-1.03 2.089-.585h.635v-2.238h-2.297"/><path fill="#C2CDE5" d="M83.834 19.546c.057 1.14-1.547 2.243-3.146 2.649-2.353.597-4.58-.526-4.58-2.856 0-2.26 1.57-3.43 3.864-2.76 1.58.462 3.806 1.844 3.862 2.967"/><path fill="#8A9BC2" d="M7.372 19.783c0 .538.474 1.387 1.131 1.528l-.705 1.295s-.607-1.03-2.088-.585h-.636v-2.238h2.298"/><path fill="#C2CDE5" d="M.001 19.546c-.056 1.14 1.548 2.243 3.146 2.649 2.352.597 4.58-.526 4.58-2.856 0-2.26-1.57-3.43-3.864-2.76-1.58.462-3.805 1.844-3.862 2.967"/><path fill="#8A9BC2" d="M69.906 62.836c0 1.096.887 1.985 1.98 1.985h6.187c1.094 0 1.98-.89 1.98-1.985V43.81a1.983 1.983 0 00-1.98-1.985h-6.186a1.983 1.983 0 00-1.981 1.985v19.025m-65.96.001c0 1.096.887 1.985 1.98 1.985h6.187c1.094 0 1.981-.89 1.981-1.985V43.81a1.983 1.983 0 00-1.98-1.985H5.926c-1.094 0-1.98.889-1.98 1.985v19.025"/><path fill="#C2CDE5" d="M79.493 28.99c-.423-2.826-2.607-6.005-3.805-8.407S70.073 6.876 68.993 4.898C67.913 2.92 65.611.907 62.792.483 59.973.059 47.523 0 42.12 0c-5.403 0-17.853.059-20.672.483-2.819.424-5.12 2.437-6.201 4.415-1.08 1.978-5.497 13.283-6.695 15.685-1.198 2.402-3.382 5.581-3.805 8.408-.423 2.826-.282 19.57.423 22.326.704 2.755 3.312 4.45 5.355 4.45h5.568c1.268 0 2.07-1.012 2.226-1.36l.748-1.673c.36-.805 1.4-1.438 2.334-1.438h41.436c.935 0 1.975.633 2.335 1.438l.78 1.748c.219.396.992 1.286 2.185 1.286h5.577c2.043 0 4.65-1.696 5.355-4.451.705-2.756.846-19.5.423-22.326"/><g transform="translate(4.51 44.652)"><mask id="ab" fill="#fff"><use xlink:href="#aa"/></mask><path fill="#C2CDE5" d="M.058.05c.108 3.053.283 5.59.52 6.52.705 2.756 3.312 4.452 5.356 4.452H11.5c1.268 0 2.07-1.013 2.227-1.361l.747-1.673c.36-.805 1.4-1.438 2.334-1.438h41.436c.935 0 1.975.633 2.335 1.438l.78 1.748c.219.396.992 1.286 2.185 1.286h5.577c2.043 0 4.65-1.696 5.356-4.451.237-.932.412-3.468.52-6.521H.058" mask="url(#ab)"/></g><g transform="translate(5.638 16.391)"><mask id="ad" fill="#fff"><use xlink:href="#ac"/></mask><path fill="#C2CDE5" d="M72.733 9.32c-.852-1.86-2.006-3.698-2.766-5.222-.338-.68-.935-2.073-1.642-3.766H4.475C3.77 2.025 3.172 3.418 2.833 4.098 2.073 5.622.92 7.459.068 9.32h72.665" mask="url(#ad)"/></g><path fill="#F6F9FF" d="M68.98 15.45c-.224-.99-3.184-10.363-9.244-10.363H23.937c-6.06 0-9.02 9.374-9.243 10.363-.223.989.575 2.166 2.408 2.166H66.57c1.833 0 2.632-1.177 2.408-2.166"/><path fill="#8A9BC2" d="M73.442 24.311s-13.706 1.578-14.2 1.636c-.493.06-.845.555-.422 1.402.422.848 2.395 3.18 3.1 3.674.705.495 1.726 1.024 3.735 1.378 2.008.353 6.307 1.2 6.941 1.378.634.176 1.55-.672 1.656-1.308.106-.635.176-6.747.176-7.188 0-.442-.302-1.05-.986-.972m-63.435 0s13.706 1.578 14.2 1.636c.492.06.845.555.422 1.402-.423.848-2.396 3.18-3.1 3.674-.705.495-1.727 1.024-3.736 1.378-2.008.353-6.306 1.2-6.94 1.378-.635.176-1.551-.672-1.657-1.308-.105-.635-.176-6.747-.176-7.188 0-.442.303-1.05.987-.972m14.376 18.087c0 .629-.508 1.137-1.134 1.137H12.41a1.136 1.136 0 01-1.134-1.137c0-.628.508-1.137 1.134-1.137h10.84c.626 0 1.134.51 1.134 1.137m48.482 0c0 .629-.508 1.137-1.135 1.137h-10.84a1.135 1.135 0 01-1.133-1.137c0-.628.508-1.137 1.134-1.137h10.84c.626 0 1.134.51 1.134 1.137"/><path fill="#F6F9FF" d="M33.262 34.003h17.194v-5.742H33.262z"/></g></svg><view id="dashboard" viewBox="0 0 128 79"/><svg width="128" height="79" viewBox="-5 -5 128 79" xmlns="http://www.w3.org/2000/svg"><g fill="none" fill-rule="evenodd"><path fill="#C2CDE5" fill-rule="nonzero" d="M.06 1h117.439v67.808H.06z"/><path fill="#C2CDE5" fill-rule="nonzero" d="M15.077 50.975h2.849v4.424h-2.849z"/><path fill="#F6F9FF" fill-rule="nonzero" d="M2.12 0c2.355 4.413 12.349 22.743 15.717 23.018h81.945C103.14 22.737 113.134 4.407 115.499 0H2.119z"/><path fill="#C2CDE5" fill-rule="nonzero" d="M117.499 47.406V27.412c0-2.553-1.684-4.618-3.758-4.618H3.817C1.744 22.794.06 24.86.06 27.412v19.505c0 3.092 2.18 5.604 4.874 5.604H113.05c2.455-.01 4.449-2.298 4.449-5.115z"/><path fill="#F6F9FF" fill-rule="nonzero" d="M117.826 1v26.49c-2.258-1.034-4.31-2.295-5.172-3.684-1.433-2.287 2.12-13.912 5.172-22.806zM0 2v24.436c1.685-.954 3.216-2.118 3.86-3.399C4.93 20.927 2.278 10.204 0 2z"/><path fill="#C2CDE5" fill-rule="nonzero" d="M55.444 30.935c0-8.645-6.928-15.652-15.465-15.652H21.73c-8.548 0-15.465 7.007-15.465 15.652v1.332h49.18v-1.332z"/><path fill="#C2CDE5" fill-rule="nonzero" d="M30.667 19.476v1.628H26.66v-1.628z"/><g fill="#8A9BC2" fill-rule="nonzero"><g transform="translate(17.558 19.835)"><path d="M6.34 12.692a6.312 6.312 0 006.309-6.305A6.313 6.313 0 006.339.08 6.313 6.313 0 00.032 6.387a6.313 6.313 0 006.309 6.305zm0-11.533c2.88 0 5.22 2.34 5.22 5.218a5.223 5.223 0 01-5.22 5.217c-2.88 0-5.22-2.34-5.22-5.217a5.223 5.223 0 015.22-5.218z"/><path d="M7.418 5.777a.406.406 0 00-.58-.123l-.285.204a.472.472 0 00-.213-.04.558.558 0 00-.56.559v.04L3.205 8.288l2.91-1.403c.072.03.143.05.225.05a.568.568 0 00.539-.406l.377-.183a.4.4 0 00.162-.57z"/><circle cx="6.35" cy="6.417" r="1"/></g><g transform="translate(33.23 19.835)"><path d="M6.34 12.692a6.312 6.312 0 006.309-6.305A6.313 6.313 0 006.339.08 6.313 6.313 0 00.032 6.387a6.313 6.313 0 006.309 6.305zm0-11.533c2.88 0 5.22 2.34 5.22 5.218a5.223 5.223 0 01-5.22 5.217c-2.88 0-5.22-2.34-5.22-5.217a5.223 5.223 0 015.22-5.218z"/><path d="M6.92 6.488a.657.657 0 00.04-.203.574.574 0 00-.519-.57L4.55 2.706l1.333 3.316a.604.604 0 00-.071.264c0 .254.162.468.396.539l.072.173a.413.413 0 10.732-.376l-.091-.133z"/><circle cx="6.36" cy="6.275" r="1"/></g></g><g fill-rule="nonzero"><path fill="#F6F9FF" d="M64.834 25.47h-8.893c-.721 0-1.305.65-1.305 1.453v4.71c0 .802.584 1.453 1.305 1.453h8.893c.721 0 1.306-.65 1.306-1.454v-4.709c0-.803-.585-1.454-1.306-1.454z"/><path fill="#F6F9FF" d="M55.54 31.632v-4.709c0-.254.182-.457.41-.457h8.893c.228 0 .411.203.411.457v4.71c0 .253-.183.457-.41.457H55.95c-.228 0-.41-.204-.41-.458z"/><path fill="#C2CDE5" d="M55.55 27.015h9.704v1H55.55zm0 1.027h9.704v1H55.55zm0 1.028h9.704v1H55.55zm0 1.036h9.704v1H55.55z"/><path fill="#C2CDE5" d="M55.55 31.062h9.704v1H55.55z"/><path fill="#F6F9FF" d="M78.639 25.47h-8.893c-.721 0-1.306.65-1.306 1.453v4.71c0 .802.585 1.453 1.306 1.453h8.893c.721 0 1.305-.65 1.305-1.454v-4.709c0-.803-.584-1.454-1.305-1.454z"/><path fill="#F6F9FF" d="M69.344 31.632v-4.709c0-.254.183-.457.411-.457h8.893c.228 0 .41.203.41.457v4.71c0 .253-.182.457-.41.457h-8.893c-.228 0-.41-.204-.41-.458z"/><path fill="#C2CDE5" d="M69.354 27.015h9.705v1h-9.705zm0 1.027h9.705v1h-9.705zm0 1.028h9.705v1h-9.705zm0 1.036h9.705v1h-9.705z"/><path fill="#C2CDE5" d="M69.354 31.062h9.705v1h-9.705z"/></g><g fill-rule="nonzero" transform="translate(1.024 26.039)"><ellipse cx="5.261" cy="5.197" fill="#F6F9FF" rx="5.18" ry="5.176"/><path fill="#F6F9FF" d="M9.331 5.197c0 .112 0 .224-.01.335-.01.173-.04.346-.07.509a3.86 3.86 0 01-.154.519 3.218 3.218 0 01-.223.508 3.416 3.416 0 01-.326.519 3.816 3.816 0 01-.987.956 4.06 4.06 0 01-2.31.712 4.084 4.084 0 01-2.93-1.23 3.088 3.088 0 01-.367-.438 3.416 3.416 0 01-.326-.519 4.532 4.532 0 01-.224-.508 4.994 4.994 0 01-.152-.52 4.079 4.079 0 01-.072-.508c-.01-.111-.01-.223-.01-.335v-.183c.01-.173.03-.346.051-.509a3.87 3.87 0 01.122-.518 4.17 4.17 0 01.255-.63c.091-.184.203-.357.315-.52.132-.183.275-.345.428-.508a4.07 4.07 0 012.87-1.18A4.07 4.07 0 018.08 2.33c.152.152.305.325.427.508.122.163.224.336.316.52.101.202.193.416.254.63.051.173.092.345.122.518.03.163.051.336.051.509a.216.216 0 01.081.183z"/><path d="M9.27 4.505H1.252a3.87 3.87 0 01.122-.518h7.764c.061.173.102.345.132.518zm.041 1.038h-8.11l-.01-.53h8.13zm-.071.497a3.86 3.86 0 01-.153.52H1.425a4.994 4.994 0 01-.153-.52H9.24zM7.49 1.8H3.032a3.972 3.972 0 00-.64.519H8.14L7.49 1.8zm1.394 1.556H1.638l.316-.529h6.614zm-.01 3.722a3.416 3.416 0 01-.326.519H1.974a3.416 3.416 0 01-.325-.519h7.225zm-.692.956H2.33c.183.193.397.366.621.519h4.61l.62-.519z" fill="#C2CDE5"/></g><g fill-rule="nonzero"><path fill="#8A9BC2" d="M31.621 12.624c-11.417 0-20.677 9.255-20.677 20.676 0 11.42 9.26 20.675 20.677 20.675C43.04 53.975 52.3 44.721 52.3 33.3c0-11.42-9.26-20.676-20.678-20.676zm0 37.243c-9.148 0-16.566-7.414-16.566-16.567s7.418-16.567 16.566-16.567c9.149 0 16.567 7.414 16.567 16.567S40.77 49.867 31.621 49.867z"/><path fill="#8A9BC2" d="M46.499 25.896s1.282 5.085-1.455 4.556c-2.687-.518-6.9-2.135-13.209-2.37v-.01c-.071 0-.142 0-.203.01-.072 0-.143-.01-.204-.01v.01c-6.32.235-10.522 1.852-13.208 2.37-2.748.53-1.456-4.556-1.456-4.556-6.36 3.672-1.058 13.669-1.058 13.669.53-2.482 1.506-2.289 4.66-.844 5.252 2.4 7.551 13.993 7.551 13.993h7.398s2.3-11.593 7.551-13.993c3.155-1.445 4.132-1.638 4.66.844 0 0 5.313-9.997-1.027-13.669z"/><path fill="#8A9BC2" d="M40.281 30.686c-.142-2.685-5.362-3.64-8.446-3.722v-.01h-.427v.01c-3.084.081-8.314 1.037-8.446 3.722-.163 3.183-.214 11.32 8.446 11.584h.427c8.66-.265 8.61-8.4 8.446-11.584z"/><path d="M40.851 32.73s.58 3.479 1.77 3.479h2.932c.64 0 1.16-.56 1.16-1.251 0 0-.52-1.73-1.049-2.695a.844.844 0 00-.732-.458h-3.216c-.478 0-.865.417-.865.925zm-18.459 0s-.58 3.479-1.77 3.479H17.69c-.64 0-1.16-.56-1.16-1.251 0 0 .52-1.73 1.048-2.695a.844.844 0 01.733-.458h3.216c.478 0 .865.417.865.925z" fill="#C2CDE5"/></g><g fill-rule="nonzero" transform="translate(104.986 26.039)"><ellipse cx="5.18" cy="5.197" fill="#F6F9FF" rx="5.18" ry="5.176"/><path fill="#F6F9FF" d="M9.25 5.197c0 .112 0 .224-.01.335-.01.173-.04.346-.071.509a3.86 3.86 0 01-.153.519 3.218 3.218 0 01-.224.508 3.416 3.416 0 01-.325.519 3.816 3.816 0 01-.987.956 4.109 4.109 0 01-5.24-.519 3.088 3.088 0 01-.368-.437 3.416 3.416 0 01-.325-.519 4.532 4.532 0 01-.224-.508 4.994 4.994 0 01-.153-.52 4.079 4.079 0 01-.071-.508c-.01-.111-.01-.223-.01-.335v-.183c.01-.173.03-.346.05-.509a3.87 3.87 0 01.123-.518c.071-.224.152-.428.254-.63.092-.184.204-.357.316-.52.132-.183.274-.345.427-.508a4.07 4.07 0 012.87-1.18 4.07 4.07 0 012.87 1.18c.152.152.305.325.427.508.122.163.224.336.315.52.102.202.194.416.255.63.05.173.091.345.122.518.03.163.05.336.05.509.082.06.082.122.082.183z"/><path d="M9.189 4.505H1.17a3.87 3.87 0 01.122-.518h7.765c.06.173.101.345.132.518zm.041 1.038h-8.1l-.01-.53h8.12zm-.072.497a3.86 3.86 0 01-.152.52H1.343a4.994 4.994 0 01-.152-.52h7.967zM7.408 1.8H2.951a3.972 3.972 0 00-.641.519h5.75L7.407 1.8zm1.394 1.556H1.557l.315-.529h6.615zm-.01 3.722a3.416 3.416 0 01-.325.519H1.893a3.416 3.416 0 01-.326-.519h7.225zm-.692.956H2.25c.183.193.397.366.62.519h4.61l.621-.519z" fill="#C2CDE5"/></g><g fill-rule="nonzero"><path fill="#F6F9FF" d="M48.26 68.822H.95c1.105-2.38 3.67-8.982 10.272-9.583 0 0 .547-.05 1.479-.115a22.007 22.007 0 012.209-.264c.566-.05 1.178-.09 1.826-.123 2.876-.148 6.345-.173 8.883-.124 3.26-.057 9.924-.008 13.694.28.411.033.795.066 1.132.107.329.041.621.074.858.124.932.066 1.48.115 1.48.115 6.61.601 6.883 6.372 5.477 9.583z"/><path fill="#C2CDE5" d="M16.736 58.737c-3.962 2.494-5.752 7.854-6.62 10.085H8.475c.858-2.198 2.601-7.418 6.436-9.962.566-.05 1.178-.09 1.826-.123zM40.445 59c.913 3.4-.356 7.369-1.25 9.822H37.56c.776-2.124 2.374-6.257 1.753-9.92l1.132.098z"/></g><g fill-rule="nonzero"><path fill="#F6F9FF" d="M117.413 59.972a7.008 7.008 0 00-2.464-.725s-.462-.05-1.248-.115a15.802 15.802 0 00-1.863-.263c-.478-.05-.994-.091-1.54-.124-2.427-.148-5.353-.173-7.494-.123-2.75-.058-8.372-.009-11.553.28-.346.032-.67.065-.955.106-.277.042-.523.075-.724.124-.785.066-1.247.115-1.247.115-5.569.593-5.8 6.364-4.621 9.575h33.71v-8.85z"/><path fill="#C2CDE5" d="M110.297 58.737c3.343 2.494 4.852 7.854 5.584 10.085h1.386c-.724-2.198-2.195-7.418-5.43-9.962-.477-.05-.993-.09-1.54-.123zm-19.046.164c-.531 3.672.817 7.797 1.479 9.921h-1.38c-.747-2.453-1.825-6.422-1.055-9.822l.955-.099z"/></g><g transform="translate(49 41)"><path fill="#F6F9FF" fill-rule="nonzero" d="M33.359 27.824H.639l.337-.679c1.647-3.312 2.496-6.883 2.496-10.494V3.243A2.371 2.371 0 015.842.872h22.313a2.371 2.371 0 012.37 2.371v13.578c0 3.494.82 6.953 2.416 10.166l.418.837z"/><path fill="#C2CDE5" d="M9.269 16.594h15.484c1.14 0 2.117.81 2.33 1.93l.713 3.762 1.05 5.538H5.152l1.063-5.533.725-3.773a2.371 2.371 0 012.329-1.924z"/><path fill="#F6F9FF" fill-rule="nonzero" d="M18.127 25.83v2h-2.256v-2.005c-2.223-.336-2.257-1.757-2.257-3.455 0-2.923 1.512-3.53 3.385-3.53 1.872 0 3.385.503 3.385 3.53 0 1.706.046 3.132-2.257 3.46z"/><rect width="19.18" height="10.107" x="7.409" y="4.241" fill="#C2CDE5" rx="1.186"/><rect width="16.924" height="7.861" x="8.537" y="5.364" fill="#F6F9FF" rx="1.186"/></g></g></svg><view id="front" viewBox="0 79 94 75"/><svg width="94" height="75" viewBox="-5 -5 94 75" y="79" xmlns="http://www.w3.org/2000/svg"><defs><path id="ca" d="M.435.166C.51 4.98.72 9.735 1.067 11.092c.704 2.756 3.312 4.451 5.355 4.451H69.61c2.044 0 4.651-1.695 5.356-4.45.347-1.358.557-6.114.63-10.927H.437"/></defs><g fill="none" fill-rule="evenodd"><path fill="#8A9BC2" d="M76.112 19.783c0 .538-.474 1.387-1.132 1.528l.705 1.295s.607-1.03 2.089-.585h.636v-2.238h-2.298"/><path fill="#C2CDE5" d="M83.834 19.546c.057 1.14-1.547 2.243-3.146 2.649-2.353.597-4.58-.526-4.58-2.856 0-2.26 1.57-3.43 3.864-2.76 1.58.462 3.806 1.844 3.862 2.967"/><path fill="#8A9BC2" d="M7.371 19.783c0 .538.475 1.387 1.133 1.528l-.705 1.295s-.608-1.03-2.09-.585h-.635v-2.238H7.37"/><path fill="#C2CDE5" d="M.002 19.546c-.058 1.14 1.546 2.243 3.145 2.649 2.352.597 4.58-.526 4.58-2.856 0-2.26-1.57-3.43-3.864-2.76-1.58.462-3.806 1.844-3.861 2.967"/><path fill="#8A9BC2" d="M69.906 62.836c0 1.096.886 1.985 1.98 1.985h6.187c1.094 0 1.98-.89 1.98-1.985V43.81a1.983 1.983 0 00-1.98-1.985h-6.187c-1.094 0-1.98.889-1.98 1.985v19.025m-65.96.001c0 1.096.887 1.985 1.98 1.985h6.187c1.094 0 1.981-.89 1.981-1.985V43.81a1.983 1.983 0 00-1.98-1.985H5.925c-1.093 0-1.98.889-1.98 1.985v19.025"/><path fill="#C2CDE5" d="M79.493 28.99c-.423-2.826-2.608-6.005-3.806-8.407S70.073 6.876 68.993 4.898C67.912 2.92 65.61.907 62.79.483 59.973.059 47.523 0 42.12 0c-5.402 0-17.852.059-20.67.483-2.82.424-5.122 2.437-6.202 4.415-1.08 1.978-5.497 13.283-6.695 15.685-1.198 2.402-3.382 5.581-3.805 8.408-.423 2.826-.282 19.57.423 22.326.704 2.755 3.312 4.45 5.355 4.45h63.188c2.044 0 4.651-1.695 5.356-4.45.705-2.756.846-19.5.423-22.326"/><g transform="translate(3.946 40.13)"><mask id="cb" fill="#fff"><use xlink:href="#ca"/></mask><path fill="#C2CDE5" d="M.435.166C.51 4.98.72 9.735 1.067 11.092c.704 2.756 3.312 4.451 5.355 4.451H69.61c2.044 0 4.651-1.695 5.356-4.45.347-1.358.557-6.114.63-10.927H.437" mask="url(#cb)"/></g><path fill="#8A9BC2" d="M75.528 50.853c.403.988-.088 1.807-1.105 1.807H9.138c-1.017 0-1.507-.819-1.105-1.807l1.418-3.48c.361-.886 1.405-1.59 2.339-1.59h59.98c.935 0 1.979.704 2.34 1.59l1.417 3.48m-18.386-15.81c-.423-1.271-2.255-2.26-4.087-2.26H31.208c-1.832 0-3.664.989-4.087 2.26-.423 1.272 1.48 6.507 2.185 7.457.704.951 1.48 1.187 3.734 1.187h18.181c2.256 0 3.03-.236 3.736-1.187.704-.95 2.607-6.185 2.184-7.457"/><path fill="#F6F9FF" d="M72.596 18.629c-.352-1.225-3.735-9.868-4.721-11.917-.987-2.049-2.326-2.755-3.312-2.755H19.415c-.987 0-2.326.706-3.312 2.755-.987 2.049-4.37 10.692-4.722 11.917-.352 1.224.212 1.79 1.128 1.79h58.96c.916 0 1.48-.566 1.127-1.79m-11.71 14.224s3.1 3.886 4.65 3.886h8.95c1.41 0 1.762-.848 2.044-1.625.282-.777.423-4.875 0-6.288 0 0-6.272 2.614-15.644 4.027m-37.646 0s-3.1 3.886-4.651 3.886h-8.95c-1.41 0-1.761-.848-2.043-1.625-.282-.777-.423-4.875 0-6.288 0 0 6.272 2.614 15.644 4.027"/></g></svg></svg>